<mxfile host="app.diagrams.net" modified="2024-05-17T22:45:09.882Z" agent="Mozilla/5.0 (Windows NT 10.0; Win64; x64) AppleWebKit/537.36 (KHTML, like Gecko) Chrome/124.0.0.0 Safari/537.36 Edg/124.0.0.0" etag="n3m_XiqIUU7G986QiOX8" version="24.4.4" type="device">
  <diagram name="PÃ¡gina-1" id="o_vRm33nGpRWv9YOxHRM">
    <mxGraphModel dx="1313" dy="707" grid="1" gridSize="10" guides="1" tooltips="1" connect="1" arrows="1" fold="1" page="1" pageScale="1" pageWidth="827" pageHeight="1169" math="0" shadow="0">
      <root>
        <mxCell id="0" />
        <mxCell id="1" parent="0" />
        <mxCell id="H8o4jqOv3tLorPZrdf9m-2" value="Audience" style="rounded=1;whiteSpace=wrap;html=1;fillColor=#f8cecc;strokeColor=#b85450;" vertex="1" parent="1">
          <mxGeometry x="80" y="50" width="120" height="60" as="geometry" />
        </mxCell>
        <mxCell id="H8o4jqOv3tLorPZrdf9m-3" value="Quien esta interesado en el juego" style="rounded=1;whiteSpace=wrap;html=1;fillColor=#dae8fc;strokeColor=#6c8ebf;" vertex="1" parent="1">
          <mxGeometry x="240" y="50" width="120" height="60" as="geometry" />
        </mxCell>
        <mxCell id="H8o4jqOv3tLorPZrdf9m-4" value="Que juegos similares juega esta persona" style="rounded=1;whiteSpace=wrap;html=1;fillColor=#dae8fc;strokeColor=#6c8ebf;" vertex="1" parent="1">
          <mxGeometry x="240" y="120" width="120" height="60" as="geometry" />
        </mxCell>
        <mxCell id="H8o4jqOv3tLorPZrdf9m-5" value="Que esperan de un nuevo juego de esa categoria" style="rounded=1;whiteSpace=wrap;html=1;fillColor=#dae8fc;strokeColor=#6c8ebf;" vertex="1" parent="1">
          <mxGeometry x="370" y="50" width="160" height="60" as="geometry" />
        </mxCell>
        <mxCell id="H8o4jqOv3tLorPZrdf9m-6" value="Cual es el comportamiento comun cuando interactuan con el juego" style="rounded=1;whiteSpace=wrap;html=1;fillColor=#dae8fc;strokeColor=#6c8ebf;" vertex="1" parent="1">
          <mxGeometry x="370" y="120" width="160" height="60" as="geometry" />
        </mxCell>
        <mxCell id="H8o4jqOv3tLorPZrdf9m-7" value="Cuanto tiempo juegan" style="rounded=1;whiteSpace=wrap;html=1;fillColor=#dae8fc;strokeColor=#6c8ebf;" vertex="1" parent="1">
          <mxGeometry x="540" y="50" width="120" height="60" as="geometry" />
        </mxCell>
        <mxCell id="H8o4jqOv3tLorPZrdf9m-8" value="Promesas no cumplidas de la competencia" style="rounded=1;whiteSpace=wrap;html=1;fillColor=#dae8fc;strokeColor=#6c8ebf;" vertex="1" parent="1">
          <mxGeometry x="540" y="120" width="120" height="60" as="geometry" />
        </mxCell>
        <mxCell id="H8o4jqOv3tLorPZrdf9m-9" value="Ejercicio 1)" style="rounded=1;whiteSpace=wrap;html=1;fillColor=#fff2cc;strokeColor=#d6b656;" vertex="1" parent="1">
          <mxGeometry x="80" y="380" width="120" height="60" as="geometry" />
        </mxCell>
        <mxCell id="H8o4jqOv3tLorPZrdf9m-10" value="Del juego que describieron la anterior clase intentar delimitar la audiencia respondiendo estas preguntas" style="rounded=1;whiteSpace=wrap;html=1;fillColor=#f5f5f5;fontColor=#333333;strokeColor=#666666;" vertex="1" parent="1">
          <mxGeometry x="240" y="380" width="420" height="60" as="geometry" />
        </mxCell>
        <mxCell id="H8o4jqOv3tLorPZrdf9m-12" value="PEGI" style="rounded=1;whiteSpace=wrap;html=1;fillColor=#dae8fc;strokeColor=#6c8ebf;" vertex="1" parent="1">
          <mxGeometry x="680" y="50" width="120" height="60" as="geometry" />
        </mxCell>
        <mxCell id="H8o4jqOv3tLorPZrdf9m-13" value="ESRB" style="rounded=1;whiteSpace=wrap;html=1;fillColor=#dae8fc;strokeColor=#6c8ebf;" vertex="1" parent="1">
          <mxGeometry x="680" y="120" width="120" height="60" as="geometry" />
        </mxCell>
        <mxCell id="H8o4jqOv3tLorPZrdf9m-14" value="Business Model" style="rounded=1;whiteSpace=wrap;html=1;fillColor=#f8cecc;strokeColor=#b85450;" vertex="1" parent="1">
          <mxGeometry x="80" y="200" width="120" height="60" as="geometry" />
        </mxCell>
        <mxCell id="H8o4jqOv3tLorPZrdf9m-15" value="Como vamos a generar Dinero?" style="rounded=1;whiteSpace=wrap;html=1;fillColor=#dae8fc;strokeColor=#6c8ebf;" vertex="1" parent="1">
          <mxGeometry x="240" y="200" width="120" height="60" as="geometry" />
        </mxCell>
        <mxCell id="H8o4jqOv3tLorPZrdf9m-16" value="Premium" style="rounded=1;whiteSpace=wrap;html=1;fillColor=#f5f5f5;fontColor=#333333;strokeColor=#666666;" vertex="1" parent="1">
          <mxGeometry x="390" y="200" width="90" height="60" as="geometry" />
        </mxCell>
        <mxCell id="H8o4jqOv3tLorPZrdf9m-17" value="Subscription" style="rounded=1;whiteSpace=wrap;html=1;fillColor=#f5f5f5;fontColor=#333333;strokeColor=#666666;" vertex="1" parent="1">
          <mxGeometry x="500" y="200" width="90" height="60" as="geometry" />
        </mxCell>
        <mxCell id="H8o4jqOv3tLorPZrdf9m-18" value="Free to play" style="rounded=1;whiteSpace=wrap;html=1;fillColor=#f5f5f5;fontColor=#333333;strokeColor=#666666;" vertex="1" parent="1">
          <mxGeometry x="610" y="200" width="90" height="60" as="geometry" />
        </mxCell>
        <mxCell id="H8o4jqOv3tLorPZrdf9m-19" value="GENRE" style="rounded=1;whiteSpace=wrap;html=1;fillColor=#dae8fc;strokeColor=#6c8ebf;" vertex="1" parent="1">
          <mxGeometry x="820" y="50" width="120" height="60" as="geometry" />
        </mxCell>
        <mxCell id="H8o4jqOv3tLorPZrdf9m-20" value="Ejercicio 2)" style="rounded=1;whiteSpace=wrap;html=1;fillColor=#fff2cc;strokeColor=#d6b656;" vertex="1" parent="1">
          <mxGeometry x="80" y="460" width="120" height="60" as="geometry" />
        </mxCell>
        <mxCell id="H8o4jqOv3tLorPZrdf9m-21" value="En que tipo de &quot;GENRE&quot; Esta su juego" style="rounded=1;whiteSpace=wrap;html=1;fillColor=#f5f5f5;fontColor=#333333;strokeColor=#666666;" vertex="1" parent="1">
          <mxGeometry x="240" y="460" width="420" height="60" as="geometry" />
        </mxCell>
        <mxCell id="H8o4jqOv3tLorPZrdf9m-22" value="Ejercicio 3)" style="rounded=1;whiteSpace=wrap;html=1;fillColor=#fff2cc;strokeColor=#d6b656;" vertex="1" parent="1">
          <mxGeometry x="80" y="540" width="120" height="60" as="geometry" />
        </mxCell>
        <mxCell id="H8o4jqOv3tLorPZrdf9m-23" value="Que modelo de negocio se usa (como hace dinero)" style="rounded=1;whiteSpace=wrap;html=1;fillColor=#f5f5f5;fontColor=#333333;strokeColor=#666666;" vertex="1" parent="1">
          <mxGeometry x="240" y="540" width="420" height="60" as="geometry" />
        </mxCell>
        <mxCell id="H8o4jqOv3tLorPZrdf9m-24" value="Competition" style="rounded=1;whiteSpace=wrap;html=1;fillColor=#f8cecc;strokeColor=#b85450;" vertex="1" parent="1">
          <mxGeometry x="80" y="290" width="120" height="60" as="geometry" />
        </mxCell>
        <mxCell id="H8o4jqOv3tLorPZrdf9m-26" value="Ejercicio 4)" style="rounded=1;whiteSpace=wrap;html=1;fillColor=#fff2cc;strokeColor=#d6b656;" vertex="1" parent="1">
          <mxGeometry x="80" y="630" width="120" height="60" as="geometry" />
        </mxCell>
        <mxCell id="H8o4jqOv3tLorPZrdf9m-27" value="Cuales juegos son mi competencia" style="rounded=1;whiteSpace=wrap;html=1;fillColor=#f5f5f5;fontColor=#333333;strokeColor=#666666;" vertex="1" parent="1">
          <mxGeometry x="240" y="630" width="420" height="60" as="geometry" />
        </mxCell>
      </root>
    </mxGraphModel>
  </diagram>
</mxfile>
